<?xml version="1.0" encoding="UTF-8" standalone="no"?>
<!DOCTYPE svg PUBLIC "-//W3C//DTD SVG 1.1//EN" "http://www.w3.org/Graphics/SVG/1.1/DTD/svg11.dtd">
<svg width="100%" height="100%" viewBox="0 0 18 18" version="1.1" xmlns="http://www.w3.org/2000/svg" xmlns:xlink="http://www.w3.org/1999/xlink" xml:space="preserve" xmlns:serif="http://www.serif.com/" style="fill-rule:evenodd;clip-rule:evenodd;stroke-linecap:round;stroke-linejoin:round;stroke-miterlimit:2;">
    <g transform="matrix(1,0,0,1,-2420.66,-4032.57)">
        <g id="ArtBoard8" transform="matrix(0.188925,0,0,0.233632,1965.2,3110.99)">
            <rect x="2410.81" y="3944.56" width="95.276" height="77.044" style="fill:none;"/>
            <g transform="matrix(3.87937,0,0,10.0068,1815.65,207.375)">
                <g transform="matrix(1,0,0,0.313487,-2621.55,-1033.3)">
                    <rect x="2777.95" y="4495.89" width="18.61" height="13.852" style="fill:none;stroke:rgb(30,30,30);stroke-width:0.96px;"/>
                </g>
                <g transform="matrix(1.22058,0,0,0.358447,-3232.74,-1235.89)">
                    <path d="M2785.14,4504.43L2785.18,4504.43L2785.22,4504.44L2785.26,4504.44L2785.3,4504.45L2785.34,4504.47L2785.38,4504.48L2785.41,4504.49L2785.45,4504.51L2785.49,4504.53L2785.52,4504.55L2785.55,4504.58L2785.58,4504.6L2785.62,4504.63L2785.64,4504.65L2785.67,4504.68L2785.7,4504.71L2785.73,4504.74L2785.75,4504.78L2785.77,4504.81L2785.8,4504.85L2785.82,4504.88L2785.83,4504.92L2785.85,4504.96L2785.86,4505L2785.88,4505.04L2785.89,4505.08L2785.9,4505.12L2785.9,4505.17L2785.91,4505.21L2785.91,4505.26L2785.91,4505.3L2785.91,4508.87L2785.91,4508.92L2785.91,4508.96L2785.9,4509L2785.9,4509.05L2785.89,4509.09L2785.88,4509.13L2785.86,4509.17L2785.85,4509.21L2785.83,4509.25L2785.82,4509.29L2785.8,4509.32L2785.77,4509.36L2785.75,4509.39L2785.73,4509.43L2785.7,4509.46L2785.67,4509.49L2785.64,4509.52L2785.62,4509.55L2785.58,4509.57L2785.55,4509.6L2785.52,4509.62L2785.49,4509.64L2785.45,4509.66L2785.41,4509.68L2785.38,4509.69L2785.34,4509.71L2785.3,4509.72L2785.26,4509.73L2785.22,4509.73L2785.18,4509.74L2785.14,4509.74L2785.09,4509.74L2783.46,4509.74L2783.41,4509.74L2783.37,4509.74L2783.33,4509.73L2783.29,4509.73L2783.25,4509.72L2783.21,4509.71L2783.17,4509.69L2783.14,4509.68L2783.1,4509.66L2783.07,4509.64L2783.03,4509.62L2783,4509.6L2782.97,4509.57L2782.93,4509.55L2782.91,4509.52L2782.88,4509.49L2782.85,4509.46L2782.82,4509.43L2782.8,4509.39L2782.78,4509.36L2782.76,4509.32L2782.74,4509.29L2782.72,4509.25L2782.7,4509.21L2782.69,4509.17L2782.67,4509.13L2782.66,4509.09L2782.65,4509.05L2782.65,4509L2782.64,4508.96L2782.64,4508.92L2782.64,4508.87L2782.64,4505.3L2782.64,4505.26L2782.64,4505.21L2782.65,4505.17L2782.65,4505.12L2782.66,4505.08L2782.67,4505.04L2782.69,4505L2782.7,4504.96L2782.72,4504.92L2782.74,4504.88L2782.76,4504.85L2782.78,4504.81L2782.8,4504.78L2782.82,4504.74L2782.85,4504.71L2782.88,4504.68L2782.91,4504.65L2782.93,4504.63L2782.97,4504.6L2783,4504.58L2783.03,4504.55L2783.07,4504.53L2783.1,4504.51L2783.14,4504.49L2783.17,4504.48L2783.21,4504.47L2783.25,4504.45L2783.29,4504.44L2783.33,4504.44L2783.37,4504.43L2783.41,4504.43L2783.46,4504.43L2785.09,4504.43L2785.14,4504.43ZM2783.47,4505.26L2783.45,4505.26L2783.45,4505.26L2783.45,4505.26L2783.45,4505.26L2783.45,4505.26L2783.44,4505.26L2783.44,4505.27L2783.44,4505.27L2783.43,4505.27L2783.43,4505.27L2783.43,4505.27L2783.43,4505.27L2783.43,4505.28L2783.43,4505.28L2783.43,4505.28L2783.42,4505.28L2783.42,4505.28L2783.42,4505.28L2783.42,4505.29L2783.42,4505.29L2783.42,4505.29L2783.42,4505.29L2783.42,4505.29L2783.42,4505.3L2783.42,4505.3L2783.42,4505.3L2783.42,4505.31L2783.42,4508.86L2783.42,4508.87L2783.42,4508.88L2783.42,4508.89L2783.43,4508.89L2783.43,4508.9L2783.44,4508.9L2783.45,4508.91L2783.45,4508.91L2783.46,4508.91L2783.47,4508.91L2785.08,4508.91L2785.1,4508.91L2785.1,4508.91L2785.1,4508.91L2785.11,4508.91L2785.11,4508.91L2785.11,4508.91L2785.11,4508.9L2785.12,4508.9L2785.12,4508.9L2785.12,4508.9L2785.12,4508.9L2785.12,4508.9L2785.12,4508.89L2785.13,4508.89L2785.13,4508.89L2785.13,4508.89L2785.13,4508.89L2785.13,4508.88L2785.13,4508.88L2785.13,4508.88L2785.13,4508.88L2785.13,4508.88L2785.13,4508.87L2785.13,4508.86L2785.13,4505.31L2785.13,4505.3L2785.13,4505.3L2785.13,4505.3L2785.13,4505.29L2785.13,4505.29L2785.13,4505.29L2785.13,4505.29L2785.13,4505.29L2785.13,4505.28L2785.13,4505.28L2785.12,4505.28L2785.12,4505.28L2785.12,4505.28L2785.12,4505.28L2785.12,4505.27L2785.12,4505.27L2785.11,4505.27L2785.11,4505.26L2785.11,4505.26L2785.1,4505.26L2785.1,4505.26L2785.1,4505.26L2785.1,4505.26L2785.09,4505.26L2783.47,4505.26Z" style="fill:rgb(30,30,30);"/>
                </g>
                <g transform="matrix(1.22058,0,0,0.235747,-3237.81,-685.025)">
                    <path d="M2785.14,4504.43L2785.18,4504.43L2785.22,4504.44L2785.26,4504.45L2785.3,4504.47L2785.34,4504.49L2785.38,4504.51L2785.41,4504.53L2785.45,4504.56L2785.49,4504.59L2785.52,4504.62L2785.55,4504.65L2785.58,4504.69L2785.62,4504.73L2785.64,4504.77L2785.67,4504.82L2785.7,4504.86L2785.73,4504.91L2785.75,4504.96L2785.77,4505.01L2785.8,4505.07L2785.82,4505.12L2785.83,4505.18L2785.85,4505.24L2785.86,4505.3L2785.88,4505.36L2785.89,4505.42L2785.9,4505.49L2785.9,4505.55L2785.91,4505.62L2785.91,4505.69L2785.91,4505.76L2785.91,4508.42L2785.91,4508.48L2785.91,4508.55L2785.9,4508.62L2785.9,4508.68L2785.89,4508.75L2785.88,4508.81L2785.86,4508.87L2785.85,4508.93L2785.83,4508.99L2785.82,4509.05L2785.8,4509.11L2785.77,4509.16L2785.75,4509.21L2785.73,4509.26L2785.7,4509.31L2785.67,4509.36L2785.64,4509.4L2785.62,4509.44L2785.58,4509.48L2785.55,4509.52L2785.52,4509.55L2785.49,4509.59L2785.45,4509.61L2785.41,4509.64L2785.38,4509.66L2785.34,4509.69L2785.3,4509.7L2785.26,4509.72L2785.22,4509.73L2785.18,4509.74L2785.14,4509.74L2785.09,4509.74L2783.46,4509.74L2783.41,4509.74L2783.37,4509.74L2783.33,4509.73L2783.29,4509.72L2783.25,4509.7L2783.21,4509.69L2783.17,4509.66L2783.14,4509.64L2783.1,4509.61L2783.07,4509.59L2783.03,4509.55L2783,4509.52L2782.97,4509.48L2782.93,4509.44L2782.91,4509.4L2782.88,4509.36L2782.85,4509.31L2782.82,4509.26L2782.8,4509.21L2782.78,4509.16L2782.76,4509.11L2782.74,4509.05L2782.72,4508.99L2782.7,4508.93L2782.69,4508.87L2782.67,4508.81L2782.66,4508.75L2782.65,4508.68L2782.65,4508.62L2782.64,4508.55L2782.64,4508.48L2782.64,4508.42L2782.64,4505.76L2782.64,4505.69L2782.64,4505.62L2782.65,4505.55L2782.65,4505.49L2782.66,4505.42L2782.67,4505.36L2782.69,4505.3L2782.7,4505.24L2782.72,4505.18L2782.74,4505.12L2782.76,4505.07L2782.78,4505.01L2782.8,4504.96L2782.82,4504.91L2782.85,4504.86L2782.88,4504.82L2782.91,4504.77L2782.93,4504.73L2782.97,4504.69L2783,4504.65L2783.03,4504.62L2783.07,4504.59L2783.1,4504.56L2783.14,4504.53L2783.17,4504.51L2783.21,4504.49L2783.25,4504.47L2783.29,4504.45L2783.33,4504.44L2783.37,4504.43L2783.41,4504.43L2783.46,4504.43L2785.09,4504.43L2785.14,4504.43ZM2783.47,4505.7L2783.45,4505.7L2783.45,4505.7L2783.45,4505.7L2783.45,4505.7L2783.44,4505.7L2783.44,4505.7L2783.44,4505.7L2783.44,4505.7L2783.44,4505.7L2783.44,4505.7L2783.44,4505.71L2783.43,4505.71L2783.43,4505.71L2783.43,4505.71L2783.43,4505.72L2783.43,4505.72L2783.43,4505.72L2783.43,4505.72L2783.43,4505.72L2783.42,4505.73L2783.42,4505.73L2783.42,4505.73L2783.42,4505.74L2783.42,4505.74L2783.42,4505.74L2783.42,4505.74L2783.42,4505.75L2783.42,4505.75L2783.42,4505.77L2783.42,4508.4L2783.42,4508.42L2783.42,4508.43L2783.42,4508.44L2783.42,4508.45L2783.43,4508.45L2783.43,4508.46L2783.44,4508.47L2783.44,4508.47L2783.45,4508.47L2783.45,4508.48L2783.47,4508.48L2785.09,4508.48L2785.1,4508.48L2785.1,4508.48L2785.1,4508.47L2785.1,4508.47L2785.1,4508.47L2785.11,4508.47L2785.11,4508.47L2785.11,4508.47L2785.11,4508.47L2785.11,4508.47L2785.11,4508.47L2785.12,4508.46L2785.12,4508.46L2785.12,4508.46L2785.12,4508.46L2785.12,4508.45L2785.12,4508.45L2785.12,4508.45L2785.13,4508.45L2785.13,4508.44L2785.13,4508.44L2785.13,4508.44L2785.13,4508.44L2785.13,4508.43L2785.13,4508.43L2785.13,4508.43L2785.13,4508.43L2785.13,4508.42L2785.13,4508.42L2785.13,4508.4L2785.13,4505.77L2785.13,4505.75L2785.13,4505.75L2785.13,4505.75L2785.13,4505.74L2785.13,4505.74L2785.13,4505.74L2785.13,4505.73L2785.13,4505.73L2785.13,4505.73L2785.13,4505.73L2785.12,4505.72L2785.12,4505.72L2785.12,4505.72L2785.12,4505.72L2785.12,4505.71L2785.12,4505.71L2785.12,4505.71L2785.11,4505.71L2785.11,4505.7L2785.11,4505.7L2785.11,4505.7L2785.11,4505.7L2785.1,4505.7L2785.1,4505.7L2785.1,4505.7L2785.1,4505.7L2785.09,4505.7L2783.47,4505.7Z" style="fill:rgb(30,30,30);"/>
                </g>
                <g transform="matrix(1.22058,0,0,0.235747,-3232.74,-685.025)">
                    <path d="M2785.14,4504.43L2785.18,4504.43L2785.22,4504.44L2785.26,4504.45L2785.3,4504.47L2785.34,4504.49L2785.38,4504.51L2785.41,4504.53L2785.45,4504.56L2785.49,4504.59L2785.52,4504.62L2785.55,4504.65L2785.58,4504.69L2785.62,4504.73L2785.64,4504.77L2785.67,4504.82L2785.7,4504.86L2785.73,4504.91L2785.75,4504.96L2785.77,4505.01L2785.8,4505.07L2785.82,4505.12L2785.83,4505.18L2785.85,4505.24L2785.86,4505.3L2785.88,4505.36L2785.89,4505.42L2785.9,4505.49L2785.9,4505.55L2785.91,4505.62L2785.91,4505.69L2785.91,4505.76L2785.91,4508.42L2785.91,4508.48L2785.91,4508.55L2785.9,4508.62L2785.9,4508.68L2785.89,4508.75L2785.88,4508.81L2785.86,4508.87L2785.85,4508.93L2785.83,4508.99L2785.82,4509.05L2785.8,4509.11L2785.77,4509.16L2785.75,4509.21L2785.73,4509.26L2785.7,4509.31L2785.67,4509.36L2785.64,4509.4L2785.62,4509.44L2785.58,4509.48L2785.55,4509.52L2785.52,4509.55L2785.49,4509.59L2785.45,4509.61L2785.41,4509.64L2785.38,4509.66L2785.34,4509.69L2785.3,4509.7L2785.26,4509.72L2785.22,4509.73L2785.18,4509.74L2785.14,4509.74L2785.09,4509.74L2783.46,4509.74L2783.41,4509.74L2783.37,4509.74L2783.33,4509.73L2783.29,4509.72L2783.25,4509.7L2783.21,4509.69L2783.17,4509.66L2783.14,4509.64L2783.1,4509.61L2783.07,4509.59L2783.03,4509.55L2783,4509.52L2782.97,4509.48L2782.93,4509.44L2782.91,4509.4L2782.88,4509.36L2782.85,4509.31L2782.82,4509.26L2782.8,4509.21L2782.78,4509.16L2782.76,4509.11L2782.74,4509.05L2782.72,4508.99L2782.7,4508.93L2782.69,4508.87L2782.67,4508.81L2782.66,4508.75L2782.65,4508.68L2782.65,4508.62L2782.64,4508.55L2782.64,4508.48L2782.64,4508.42L2782.64,4505.76L2782.64,4505.69L2782.64,4505.62L2782.65,4505.55L2782.65,4505.49L2782.66,4505.42L2782.67,4505.36L2782.69,4505.3L2782.7,4505.24L2782.72,4505.18L2782.74,4505.12L2782.76,4505.07L2782.78,4505.01L2782.8,4504.96L2782.82,4504.91L2782.85,4504.86L2782.88,4504.82L2782.91,4504.77L2782.93,4504.73L2782.97,4504.69L2783,4504.65L2783.03,4504.62L2783.07,4504.59L2783.1,4504.56L2783.14,4504.53L2783.17,4504.51L2783.21,4504.49L2783.25,4504.47L2783.29,4504.45L2783.33,4504.44L2783.37,4504.43L2783.41,4504.43L2783.46,4504.43L2785.09,4504.43L2785.14,4504.43ZM2783.47,4505.7L2783.45,4505.7L2783.45,4505.7L2783.45,4505.7L2783.45,4505.7L2783.44,4505.7L2783.44,4505.7L2783.44,4505.7L2783.44,4505.7L2783.44,4505.7L2783.44,4505.7L2783.44,4505.71L2783.43,4505.71L2783.43,4505.71L2783.43,4505.71L2783.43,4505.72L2783.43,4505.72L2783.43,4505.72L2783.43,4505.72L2783.42,4505.73L2783.42,4505.73L2783.42,4505.73L2783.42,4505.73L2783.42,4505.74L2783.42,4505.74L2783.42,4505.74L2783.42,4505.74L2783.42,4505.75L2783.42,4505.75L2783.42,4505.75L2783.42,4505.77L2783.42,4508.4L2783.42,4508.42L2783.42,4508.44L2783.42,4508.44L2783.43,4508.45L2783.43,4508.46L2783.44,4508.47L2783.44,4508.47L2783.45,4508.47L2783.45,4508.48L2783.47,4508.48L2785.09,4508.48L2785.1,4508.48L2785.1,4508.48L2785.1,4508.47L2785.1,4508.47L2785.1,4508.47L2785.11,4508.47L2785.11,4508.47L2785.11,4508.47L2785.11,4508.47L2785.11,4508.47L2785.11,4508.47L2785.11,4508.47L2785.12,4508.46L2785.12,4508.46L2785.12,4508.46L2785.12,4508.46L2785.12,4508.45L2785.12,4508.45L2785.12,4508.45L2785.12,4508.45L2785.13,4508.44L2785.13,4508.44L2785.13,4508.44L2785.13,4508.44L2785.13,4508.44L2785.13,4508.43L2785.13,4508.43L2785.13,4508.43L2785.13,4508.43L2785.13,4508.42L2785.13,4508.42L2785.13,4508.4L2785.13,4505.77L2785.13,4505.75L2785.13,4505.75L2785.13,4505.75L2785.13,4505.74L2785.13,4505.74L2785.13,4505.74L2785.13,4505.74L2785.13,4505.73L2785.13,4505.73L2785.13,4505.73L2785.13,4505.73L2785.12,4505.72L2785.12,4505.72L2785.12,4505.72L2785.12,4505.72L2785.12,4505.71L2785.12,4505.71L2785.12,4505.71L2785.11,4505.71L2785.11,4505.7L2785.11,4505.7L2785.11,4505.7L2785.11,4505.7L2785.11,4505.7L2785.11,4505.7L2785.1,4505.7L2785.1,4505.7L2785.1,4505.7L2785.1,4505.7L2785.09,4505.7L2783.47,4505.7Z" style="fill:rgb(30,30,30);"/>
                </g>
                <g transform="matrix(1.22058,0,0,0.235747,-3227.68,-685.025)">
                    <path d="M2785.14,4504.43L2785.18,4504.43L2785.22,4504.44L2785.26,4504.45L2785.3,4504.47L2785.34,4504.49L2785.38,4504.51L2785.41,4504.53L2785.45,4504.56L2785.49,4504.59L2785.52,4504.62L2785.55,4504.65L2785.58,4504.69L2785.62,4504.73L2785.64,4504.77L2785.67,4504.82L2785.7,4504.86L2785.73,4504.91L2785.75,4504.96L2785.77,4505.01L2785.8,4505.07L2785.82,4505.12L2785.83,4505.18L2785.85,4505.24L2785.86,4505.3L2785.88,4505.36L2785.89,4505.42L2785.9,4505.49L2785.9,4505.55L2785.91,4505.62L2785.91,4505.69L2785.91,4505.76L2785.91,4508.42L2785.91,4508.48L2785.91,4508.55L2785.9,4508.62L2785.9,4508.68L2785.89,4508.75L2785.88,4508.81L2785.86,4508.87L2785.85,4508.93L2785.83,4508.99L2785.82,4509.05L2785.8,4509.11L2785.77,4509.16L2785.75,4509.21L2785.73,4509.26L2785.7,4509.31L2785.67,4509.36L2785.64,4509.4L2785.62,4509.44L2785.58,4509.48L2785.55,4509.52L2785.52,4509.55L2785.49,4509.59L2785.45,4509.61L2785.41,4509.64L2785.38,4509.66L2785.34,4509.69L2785.3,4509.7L2785.26,4509.72L2785.22,4509.73L2785.18,4509.74L2785.14,4509.74L2785.09,4509.74L2783.46,4509.74L2783.41,4509.74L2783.37,4509.74L2783.33,4509.73L2783.29,4509.72L2783.25,4509.7L2783.21,4509.69L2783.17,4509.66L2783.14,4509.64L2783.1,4509.61L2783.07,4509.59L2783.03,4509.55L2783,4509.52L2782.97,4509.48L2782.93,4509.44L2782.91,4509.4L2782.88,4509.36L2782.85,4509.31L2782.82,4509.26L2782.8,4509.21L2782.78,4509.16L2782.76,4509.11L2782.74,4509.05L2782.72,4508.99L2782.7,4508.93L2782.69,4508.87L2782.67,4508.81L2782.66,4508.75L2782.65,4508.68L2782.65,4508.62L2782.64,4508.55L2782.64,4508.48L2782.64,4508.42L2782.64,4505.76L2782.64,4505.69L2782.64,4505.62L2782.65,4505.55L2782.65,4505.49L2782.66,4505.42L2782.67,4505.36L2782.69,4505.3L2782.7,4505.24L2782.72,4505.18L2782.74,4505.12L2782.76,4505.07L2782.78,4505.01L2782.8,4504.96L2782.82,4504.91L2782.85,4504.86L2782.88,4504.82L2782.91,4504.77L2782.93,4504.73L2782.97,4504.69L2783,4504.65L2783.03,4504.62L2783.07,4504.59L2783.1,4504.56L2783.14,4504.53L2783.17,4504.51L2783.21,4504.49L2783.25,4504.47L2783.29,4504.45L2783.33,4504.44L2783.37,4504.43L2783.41,4504.43L2783.46,4504.43L2785.09,4504.43L2785.14,4504.43ZM2783.47,4505.7L2783.45,4505.7L2783.45,4505.7L2783.45,4505.7L2783.45,4505.7L2783.45,4505.7L2783.44,4505.7L2783.44,4505.7L2783.44,4505.7L2783.44,4505.7L2783.44,4505.71L2783.43,4505.71L2783.43,4505.71L2783.43,4505.71L2783.43,4505.72L2783.43,4505.72L2783.43,4505.72L2783.42,4505.73L2783.42,4505.73L2783.42,4505.73L2783.42,4505.73L2783.42,4505.74L2783.42,4505.74L2783.42,4505.74L2783.42,4505.75L2783.42,4505.75L2783.42,4505.75L2783.42,4505.77L2783.42,4508.4L2783.42,4508.42L2783.42,4508.43L2783.42,4508.44L2783.43,4508.45L2783.43,4508.45L2783.43,4508.46L2783.44,4508.47L2783.45,4508.47L2783.45,4508.47L2783.45,4508.48L2783.47,4508.48L2785.09,4508.48L2785.1,4508.48L2785.1,4508.48L2785.1,4508.47L2785.1,4508.47L2785.1,4508.47L2785.11,4508.47L2785.11,4508.47L2785.11,4508.47L2785.11,4508.47L2785.11,4508.47L2785.11,4508.47L2785.11,4508.47L2785.12,4508.46L2785.12,4508.46L2785.12,4508.46L2785.12,4508.46L2785.12,4508.45L2785.12,4508.45L2785.13,4508.45L2785.13,4508.44L2785.13,4508.44L2785.13,4508.44L2785.13,4508.44L2785.13,4508.43L2785.13,4508.43L2785.13,4508.43L2785.13,4508.43L2785.13,4508.42L2785.13,4508.42L2785.13,4508.4L2785.13,4505.77L2785.13,4505.75L2785.13,4505.75L2785.13,4505.74L2785.13,4505.74L2785.13,4505.74L2785.13,4505.74L2785.13,4505.73L2785.13,4505.73L2785.13,4505.73L2785.12,4505.72L2785.12,4505.72L2785.12,4505.72L2785.12,4505.72L2785.12,4505.72L2785.12,4505.71L2785.12,4505.71L2785.12,4505.71L2785.11,4505.71L2785.11,4505.7L2785.11,4505.7L2785.11,4505.7L2785.11,4505.7L2785.11,4505.7L2785.11,4505.7L2785.1,4505.7L2785.1,4505.7L2785.1,4505.7L2785.1,4505.7L2785.09,4505.7L2783.47,4505.7Z" style="fill:rgb(30,30,30);"/>
                </g>
                <g transform="matrix(1,0,0,0.313487,-2621.55,-1033.3)">
                    <path d="M2777.95,4495.89L2787.36,4491.65L2787.36,4494.03L2796.55,4489.01L2796.55,4495.89" style="fill:none;stroke:rgb(30,30,30);stroke-width:0.96px;"/>
                </g>
            </g>
        </g>
    </g>
</svg>
