<?xml version="1.0" encoding="UTF-8" standalone="no"?>
<!DOCTYPE svg PUBLIC "-//W3C//DTD SVG 1.1//EN" "http://www.w3.org/Graphics/SVG/1.1/DTD/svg11.dtd">
<svg width="100%" height="100%" viewBox="0 0 18 18" version="1.1" xmlns="http://www.w3.org/2000/svg" xmlns:xlink="http://www.w3.org/1999/xlink" xml:space="preserve" xmlns:serif="http://www.serif.com/" style="fill-rule:evenodd;clip-rule:evenodd;stroke-linejoin:round;stroke-miterlimit:1.41421;">
    <g transform="matrix(1,0,0,1,-2420.66,-4054.95)">
        <g id="ArtBoard8" transform="matrix(0.188925,0,0,0.233632,1965.2,3133.38)">
            <rect x="2410.81" y="3944.56" width="95.276" height="77.044" style="fill:none;"/>
            <g transform="matrix(4.49954,0,0,11.6066,1856.7,-382.464)">
                <g transform="matrix(1,0,0,0.313487,-2621.55,-1033.3)">
                    <path d="M2756.12,4486.58C2756.57,4486.58 2756.95,4486.95 2756.95,4487.41L2756.95,4489.05C2757.68,4489.23 2758.37,4489.52 2758.99,4489.9L2760.15,4488.74C2760.48,4488.41 2761,4488.41 2761.33,4488.74L2762.5,4489.91C2762.82,4490.23 2762.82,4490.76 2762.5,4491.08L2761.34,4492.25C2761.72,4492.87 2762.01,4493.56 2762.18,4494.29L2763.83,4494.29C2764.29,4494.29 2764.66,4494.66 2764.66,4495.12L2764.66,4496.78C2764.66,4497.24 2764.29,4497.61 2763.83,4497.61L2762.18,4497.61C2762.01,4498.34 2761.72,4499.03 2761.34,4499.65L2762.5,4500.82C2762.82,4501.14 2762.82,4501.66 2762.5,4501.99L2761.33,4503.16C2761,4503.49 2760.48,4503.49 2760.15,4503.16L2758.99,4502C2758.37,4502.38 2757.68,4502.67 2756.95,4502.85L2756.95,4504.49C2756.95,4504.95 2756.57,4505.32 2756.12,4505.32L2754.46,4505.32C2754,4505.32 2753.63,4504.95 2753.63,4504.49L2753.63,4502.85C2752.9,4502.67 2752.21,4502.38 2751.59,4502L2750.42,4503.16C2750.1,4503.49 2749.57,4503.49 2749.25,4503.16L2748.07,4501.99C2747.75,4501.66 2747.75,4501.14 2748.07,4500.82L2749.24,4499.65C2748.86,4499.03 2748.57,4498.34 2748.39,4497.61L2746.74,4497.61C2746.28,4497.61 2745.91,4497.24 2745.91,4496.78L2745.91,4495.12C2745.91,4494.66 2746.28,4494.29 2746.74,4494.29L2748.39,4494.29C2748.57,4493.56 2748.86,4492.87 2749.24,4492.25L2748.07,4491.08C2747.75,4490.76 2747.75,4490.23 2748.07,4489.91L2749.25,4488.73C2749.57,4488.41 2750.1,4488.41 2750.42,4488.73L2751.59,4489.9C2752.21,4489.52 2752.9,4489.23 2753.63,4489.05L2753.63,4487.41C2753.63,4486.95 2754,4486.58 2754.46,4486.58L2756.12,4486.58Z" style="fill:white;"/>
                    <path d="M2756.16,4486.58L2756.2,4486.58L2756.24,4486.59L2756.28,4486.59L2756.32,4486.6L2756.36,4486.61L2756.4,4486.63L2756.44,4486.64L2756.48,4486.66L2756.51,4486.68L2756.55,4486.7L2756.58,4486.72L2756.61,4486.74L2756.64,4486.77L2756.67,4486.79L2756.7,4486.82L2756.73,4486.85L2756.76,4486.88L2756.78,4486.91L2756.8,4486.94L2756.83,4486.98L2756.85,4487.01L2756.86,4487.05L2756.88,4487.08L2756.9,4487.12L2756.91,4487.16L2756.92,4487.2L2756.93,4487.24L2756.94,4487.28L2756.94,4487.32L2756.95,4487.36L2756.95,4487.41L2756.95,4489.05L2757.08,4489.09L2757.22,4489.12L2757.35,4489.16L2757.49,4489.21L2757.62,4489.25L2757.75,4489.3L2757.88,4489.35L2758.01,4489.4L2758.14,4489.45L2758.26,4489.51L2758.39,4489.57L2758.51,4489.63L2758.63,4489.69L2758.75,4489.76L2758.87,4489.83L2758.99,4489.9L2760.15,4488.74L2760.18,4488.71L2760.22,4488.68L2760.25,4488.65L2760.28,4488.63L2760.32,4488.61L2760.35,4488.59L2760.39,4488.57L2760.43,4488.55L2760.47,4488.54L2760.5,4488.53L2760.54,4488.52L2760.58,4488.51L2760.62,4488.5L2760.66,4488.5L2760.7,4488.49L2760.74,4488.49L2760.78,4488.49L2760.82,4488.5L2760.86,4488.5L2760.9,4488.51L2760.94,4488.52L2760.98,4488.53L2761.01,4488.54L2761.05,4488.55L2761.09,4488.57L2761.13,4488.59L2761.16,4488.61L2761.2,4488.63L2761.23,4488.65L2761.26,4488.68L2761.3,4488.71L2761.33,4488.74L2762.5,4489.91L2762.53,4489.94L2762.56,4489.97L2762.58,4490.01L2762.61,4490.04L2762.63,4490.07L2762.65,4490.11L2762.67,4490.15L2762.68,4490.18L2762.7,4490.22L2762.71,4490.26L2762.72,4490.3L2762.73,4490.34L2762.73,4490.38L2762.74,4490.42L2762.74,4490.46L2762.74,4490.5L2762.74,4490.54L2762.74,4490.58L2762.73,4490.61L2762.73,4490.65L2762.72,4490.69L2762.71,4490.73L2762.7,4490.77L2762.68,4490.81L2762.67,4490.85L2762.65,4490.88L2762.63,4490.92L2762.61,4490.95L2762.58,4490.99L2762.56,4491.02L2762.53,4491.05L2762.5,4491.08L2761.34,4492.25L2761.41,4492.36L2761.47,4492.48L2761.54,4492.61L2761.6,4492.73L2761.67,4492.85L2761.72,4492.98L2761.78,4493.1L2761.84,4493.23L2761.89,4493.36L2761.94,4493.49L2761.99,4493.62L2762.03,4493.75L2762.07,4493.88L2762.11,4494.02L2762.15,4494.15L2762.18,4494.29L2763.83,4494.29L2763.87,4494.29L2763.91,4494.29L2763.96,4494.3L2764,4494.31L2764.04,4494.32L2764.08,4494.33L2764.12,4494.34L2764.15,4494.36L2764.19,4494.37L2764.23,4494.39L2764.26,4494.41L2764.29,4494.43L2764.33,4494.45L2764.36,4494.48L2764.39,4494.51L2764.42,4494.53L2764.44,4494.56L2764.47,4494.59L2764.49,4494.62L2764.52,4494.65L2764.54,4494.69L2764.56,4494.72L2764.58,4494.76L2764.6,4494.8L2764.61,4494.83L2764.62,4494.87L2764.63,4494.91L2764.64,4494.95L2764.65,4494.99L2764.66,4495.03L2764.66,4495.08L2764.66,4495.12L2764.66,4496.78L2764.66,4496.82L2764.66,4496.86L2764.65,4496.9L2764.64,4496.95L2764.63,4496.99L2764.62,4497.03L2764.61,4497.06L2764.6,4497.1L2764.58,4497.14L2764.56,4497.17L2764.54,4497.21L2764.52,4497.24L2764.49,4497.28L2764.47,4497.31L2764.44,4497.34L2764.42,4497.37L2764.39,4497.39L2764.36,4497.42L2764.33,4497.44L2764.29,4497.47L2764.26,4497.49L2764.23,4497.51L2764.19,4497.53L2764.15,4497.54L2764.12,4497.56L2764.08,4497.57L2764.04,4497.58L2764,4497.59L2763.96,4497.6L2763.91,4497.61L2763.87,4497.61L2763.83,4497.61L2762.18,4497.61L2762.15,4497.74L2762.11,4497.88L2762.07,4498.02L2762.03,4498.15L2761.99,4498.28L2761.94,4498.41L2761.89,4498.54L2761.84,4498.67L2761.78,4498.8L2761.72,4498.92L2761.67,4499.05L2761.6,4499.17L2761.54,4499.29L2761.47,4499.41L2761.41,4499.53L2761.34,4499.65L2762.5,4500.82L2762.53,4500.85L2762.56,4500.88L2762.58,4500.91L2762.61,4500.95L2762.63,4500.98L2762.65,4501.02L2762.67,4501.05L2762.68,4501.09L2762.7,4501.13L2762.71,4501.17L2762.72,4501.2L2762.73,4501.24L2762.73,4501.28L2762.74,4501.32L2762.74,4501.36L2762.74,4501.4L2762.74,4501.44L2762.74,4501.48L2762.73,4501.52L2762.73,4501.56L2762.72,4501.6L2762.71,4501.64L2762.7,4501.68L2762.68,4501.72L2762.67,4501.75L2762.65,4501.79L2762.63,4501.82L2762.61,4501.86L2762.58,4501.89L2762.56,4501.93L2762.53,4501.96L2762.5,4501.99L2761.33,4503.16L2761.3,4503.19L2761.26,4503.22L2761.23,4503.24L2761.2,4503.27L2761.16,4503.29L2761.13,4503.31L2761.09,4503.33L2761.05,4503.35L2761.01,4503.36L2760.98,4503.37L2760.94,4503.38L2760.9,4503.39L2760.86,4503.4L2760.82,4503.4L2760.78,4503.4L2760.74,4503.41L2760.7,4503.4L2760.66,4503.4L2760.62,4503.4L2760.58,4503.39L2760.54,4503.38L2760.5,4503.37L2760.47,4503.36L2760.43,4503.35L2760.39,4503.33L2760.35,4503.31L2760.32,4503.29L2760.28,4503.27L2760.25,4503.24L2760.22,4503.22L2760.18,4503.19L2760.15,4503.16L2758.99,4502L2758.87,4502.07L2758.75,4502.14L2758.63,4502.2L2758.51,4502.27L2758.39,4502.33L2758.26,4502.39L2758.14,4502.44L2758.01,4502.5L2757.88,4502.55L2757.75,4502.6L2757.62,4502.65L2757.49,4502.69L2757.35,4502.73L2757.22,4502.77L2757.08,4502.81L2756.95,4502.85L2756.95,4504.49L2756.95,4504.54L2756.94,4504.58L2756.94,4504.62L2756.93,4504.66L2756.92,4504.7L2756.91,4504.74L2756.9,4504.78L2756.88,4504.82L2756.86,4504.85L2756.85,4504.89L2756.83,4504.92L2756.8,4504.96L2756.78,4504.99L2756.76,4505.02L2756.73,4505.05L2756.7,4505.08L2756.67,4505.11L2756.64,4505.13L2756.61,4505.16L2756.58,4505.18L2756.55,4505.2L2756.51,4505.22L2756.48,4505.24L2756.44,4505.26L2756.4,4505.27L2756.36,4505.28L2756.32,4505.3L2756.28,4505.31L2756.24,4505.31L2756.2,4505.32L2756.16,4505.32L2756.12,4505.32L2754.46,4505.32L2754.41,4505.32L2754.37,4505.32L2754.33,4505.31L2754.29,4505.31L2754.25,4505.3L2754.21,4505.28L2754.17,4505.27L2754.13,4505.26L2754.1,4505.24L2754.06,4505.22L2754.03,4505.2L2753.99,4505.18L2753.96,4505.16L2753.93,4505.13L2753.9,4505.11L2753.87,4505.08L2753.84,4505.05L2753.82,4505.02L2753.79,4504.99L2753.77,4504.96L2753.75,4504.92L2753.73,4504.89L2753.71,4504.85L2753.69,4504.82L2753.68,4504.78L2753.66,4504.74L2753.65,4504.7L2753.64,4504.66L2753.64,4504.62L2753.63,4504.58L2753.63,4504.54L2753.63,4504.49L2753.63,4502.85L2753.49,4502.81L2753.36,4502.77L2753.22,4502.73L2753.09,4502.69L2752.95,4502.65L2752.82,4502.6L2752.69,4502.55L2752.57,4502.5L2752.44,4502.44L2752.31,4502.39L2752.19,4502.33L2752.06,4502.27L2751.94,4502.2L2751.82,4502.14L2751.7,4502.07L2751.59,4502L2750.42,4503.16L2750.39,4503.19L2750.36,4503.22L2750.32,4503.24L2750.29,4503.27L2750.26,4503.29L2750.22,4503.31L2750.18,4503.33L2750.15,4503.35L2750.11,4503.36L2750.07,4503.37L2750.03,4503.38L2749.99,4503.39L2749.95,4503.4L2749.91,4503.4L2749.87,4503.4L2749.83,4503.41L2749.79,4503.4L2749.75,4503.4L2749.71,4503.4L2749.68,4503.39L2749.64,4503.38L2749.6,4503.37L2749.56,4503.36L2749.52,4503.35L2749.48,4503.33L2749.45,4503.31L2749.41,4503.29L2749.38,4503.27L2749.34,4503.24L2749.31,4503.22L2749.28,4503.19L2749.25,4503.16L2748.07,4501.99L2748.04,4501.96L2748.02,4501.93L2747.99,4501.89L2747.97,4501.86L2747.95,4501.82L2747.93,4501.79L2747.91,4501.75L2747.89,4501.72L2747.88,4501.68L2747.86,4501.64L2747.85,4501.6L2747.85,4501.56L2747.84,4501.52L2747.83,4501.48L2747.83,4501.44L2747.83,4501.4L2747.83,4501.36L2747.83,4501.32L2747.84,4501.28L2747.85,4501.24L2747.85,4501.2L2747.86,4501.17L2747.88,4501.13L2747.89,4501.09L2747.91,4501.05L2747.93,4501.02L2747.95,4500.98L2747.97,4500.95L2747.99,4500.91L2748.02,4500.88L2748.04,4500.85L2748.07,4500.82L2749.24,4499.65L2749.17,4499.53L2749.1,4499.41L2749.03,4499.29L2748.97,4499.17L2748.91,4499.05L2748.85,4498.92L2748.79,4498.8L2748.74,4498.67L2748.68,4498.54L2748.64,4498.41L2748.59,4498.28L2748.54,4498.15L2748.5,4498.02L2748.46,4497.88L2748.43,4497.74L2748.39,4497.61L2746.74,4497.61L2746.7,4497.61L2746.66,4497.61L2746.62,4497.6L2746.58,4497.59L2746.54,4497.58L2746.5,4497.57L2746.46,4497.56L2746.42,4497.54L2746.38,4497.53L2746.35,4497.51L2746.31,4497.49L2746.28,4497.47L2746.25,4497.44L2746.22,4497.42L2746.18,4497.39L2746.16,4497.37L2746.13,4497.34L2746.1,4497.31L2746.08,4497.28L2746.05,4497.24L2746.03,4497.21L2746.01,4497.17L2745.99,4497.14L2745.98,4497.1L2745.96,4497.06L2745.95,4497.03L2745.94,4496.99L2745.93,4496.95L2745.92,4496.9L2745.92,4496.86L2745.91,4496.82L2745.91,4496.78L2745.91,4495.12L2745.91,4495.08L2745.92,4495.03L2745.92,4494.99L2745.93,4494.95L2745.94,4494.91L2745.95,4494.87L2745.96,4494.83L2745.98,4494.8L2745.99,4494.76L2746.01,4494.72L2746.03,4494.69L2746.05,4494.65L2746.08,4494.62L2746.1,4494.59L2746.13,4494.56L2746.16,4494.53L2746.18,4494.51L2746.22,4494.48L2746.25,4494.45L2746.28,4494.43L2746.31,4494.41L2746.35,4494.39L2746.38,4494.37L2746.42,4494.36L2746.46,4494.34L2746.5,4494.33L2746.54,4494.32L2746.58,4494.31L2746.62,4494.3L2746.66,4494.29L2746.7,4494.29L2746.74,4494.29L2748.39,4494.29L2748.43,4494.15L2748.46,4494.02L2748.5,4493.88L2748.54,4493.75L2748.59,4493.62L2748.64,4493.49L2748.68,4493.36L2748.74,4493.23L2748.79,4493.1L2748.85,4492.97L2748.91,4492.85L2748.97,4492.73L2749.03,4492.6L2749.1,4492.48L2749.17,4492.36L2749.24,4492.25L2748.07,4491.08L2748.04,4491.05L2748.02,4491.02L2747.99,4490.98L2747.97,4490.95L2747.95,4490.91L2747.93,4490.88L2747.91,4490.84L2747.89,4490.81L2747.88,4490.77L2747.86,4490.73L2747.85,4490.69L2747.85,4490.65L2747.84,4490.61L2747.83,4490.57L2747.83,4490.53L2747.83,4490.49L2747.83,4490.45L2747.83,4490.41L2747.84,4490.37L2747.85,4490.34L2747.85,4490.3L2747.86,4490.26L2747.88,4490.22L2747.89,4490.18L2747.91,4490.14L2747.93,4490.11L2747.95,4490.07L2747.97,4490.04L2747.99,4490L2748.02,4489.97L2748.04,4489.94L2748.07,4489.91L2749.25,4488.73L2749.28,4488.7L2749.31,4488.68L2749.34,4488.65L2749.38,4488.63L2749.41,4488.61L2749.45,4488.59L2749.48,4488.57L2749.52,4488.55L2749.56,4488.54L2749.6,4488.52L2749.64,4488.51L2749.68,4488.51L2749.71,4488.5L2749.75,4488.49L2749.79,4488.49L2749.83,4488.49L2749.87,4488.49L2749.91,4488.49L2749.95,4488.5L2749.99,4488.51L2750.03,4488.51L2750.07,4488.52L2750.11,4488.54L2750.15,4488.55L2750.18,4488.57L2750.22,4488.59L2750.26,4488.61L2750.29,4488.63L2750.32,4488.65L2750.36,4488.68L2750.39,4488.7L2750.42,4488.73L2751.59,4489.9L2751.7,4489.83L2751.82,4489.76L2751.94,4489.69L2752.07,4489.63L2752.19,4489.57L2752.31,4489.51L2752.44,4489.45L2752.57,4489.4L2752.7,4489.35L2752.83,4489.3L2752.95,4489.25L2753.09,4489.21L2753.22,4489.16L2753.36,4489.12L2753.49,4489.09L2753.63,4489.05L2753.63,4487.41L2753.63,4487.36L2753.63,4487.32L2753.64,4487.28L2753.64,4487.24L2753.65,4487.2L2753.66,4487.16L2753.68,4487.12L2753.69,4487.08L2753.71,4487.05L2753.73,4487.01L2753.75,4486.98L2753.77,4486.94L2753.79,4486.91L2753.82,4486.88L2753.84,4486.85L2753.87,4486.82L2753.9,4486.79L2753.93,4486.77L2753.96,4486.74L2753.99,4486.72L2754.03,4486.7L2754.06,4486.68L2754.1,4486.66L2754.13,4486.64L2754.17,4486.63L2754.21,4486.61L2754.25,4486.6L2754.29,4486.59L2754.33,4486.59L2754.37,4486.58L2754.41,4486.58L2754.46,4486.58L2756.12,4486.58L2756.16,4486.58ZM2754.47,4487.4L2754.46,4487.4L2754.46,4487.4L2754.45,4487.4L2754.45,4487.4L2754.45,4487.4L2754.45,4487.4L2754.45,4487.4L2754.45,4487.4L2754.45,4487.4L2754.45,4487.4L2754.45,4487.4L2754.45,4487.41L2754.45,4489.05L2754.45,4489.13L2754.44,4489.21L2754.42,4489.28L2754.39,4489.36L2754.36,4489.43L2754.32,4489.5L2754.28,4489.56L2754.22,4489.62L2754.17,4489.67L2754.11,4489.72L2754.04,4489.76L2753.97,4489.8L2753.9,4489.83L2753.83,4489.85L2753.7,4489.88L2753.58,4489.92L2753.46,4489.95L2753.34,4489.99L2753.23,4490.03L2753.11,4490.07L2753,4490.11L2752.88,4490.16L2752.77,4490.21L2752.66,4490.26L2752.55,4490.31L2752.44,4490.36L2752.33,4490.42L2752.23,4490.48L2752.12,4490.54L2752.01,4490.61L2751.94,4490.64L2751.87,4490.67L2751.8,4490.7L2751.72,4490.71L2751.64,4490.72L2751.56,4490.72L2751.49,4490.72L2751.41,4490.7L2751.33,4490.68L2751.26,4490.66L2751.19,4490.62L2751.12,4490.58L2751.06,4490.53L2751,4490.48L2749.85,4489.32L2749.84,4489.32L2749.84,4489.32L2749.84,4489.31L2749.84,4489.31L2749.84,4489.31L2749.83,4489.31L2749.83,4489.31L2749.83,4489.31L2749.83,4489.31L2749.83,4489.31L2749.83,4489.32L2749.83,4489.32L2749.82,4489.32L2748.66,4490.48L2748.66,4490.49L2748.66,4490.49L2748.65,4490.49L2748.65,4490.49L2748.65,4490.49L2748.65,4490.49L2748.65,4490.49L2748.66,4490.5L2748.66,4490.51L2749.82,4491.66L2749.87,4491.72L2749.92,4491.78L2749.96,4491.85L2749.99,4491.92L2750.02,4491.99L2750.04,4492.07L2750.06,4492.15L2750.06,4492.22L2750.06,4492.3L2750.05,4492.38L2750.03,4492.46L2750.01,4492.53L2749.98,4492.6L2749.95,4492.67L2749.88,4492.78L2749.82,4492.89L2749.76,4492.99L2749.7,4493.1L2749.65,4493.21L2749.6,4493.32L2749.55,4493.43L2749.5,4493.54L2749.45,4493.66L2749.41,4493.77L2749.37,4493.89L2749.33,4494.01L2749.29,4494.12L2749.25,4494.24L2749.22,4494.36L2749.19,4494.49L2749.17,4494.56L2749.14,4494.64L2749.1,4494.7L2749.06,4494.77L2749.01,4494.83L2748.96,4494.89L2748.9,4494.94L2748.83,4494.98L2748.77,4495.02L2748.7,4495.06L2748.62,4495.08L2748.55,4495.1L2748.47,4495.11L2748.39,4495.11L2746.75,4495.11L2746.74,4495.11L2746.74,4495.11L2746.74,4495.11L2746.74,4495.11L2746.74,4495.11L2746.74,4495.12L2746.74,4495.12L2746.74,4495.12L2746.74,4495.12L2746.74,4495.13L2746.74,4496.77L2746.74,4496.78L2746.74,4496.78L2746.75,4496.78L2746.76,4496.79L2748.39,4496.79L2748.47,4496.79L2748.55,4496.8L2748.62,4496.82L2748.7,4496.84L2748.77,4496.88L2748.83,4496.91L2748.9,4496.96L2748.96,4497.01L2749.01,4497.07L2749.06,4497.13L2749.1,4497.19L2749.14,4497.26L2749.17,4497.33L2749.19,4497.41L2749.22,4497.54L2749.25,4497.66L2749.29,4497.78L2749.33,4497.89L2749.37,4498.01L2749.41,4498.13L2749.45,4498.24L2749.5,4498.35L2749.55,4498.47L2749.6,4498.58L2749.65,4498.69L2749.7,4498.8L2749.76,4498.9L2749.82,4499.01L2749.88,4499.12L2749.94,4499.23L2749.98,4499.3L2750.01,4499.37L2750.03,4499.44L2750.05,4499.52L2750.06,4499.6L2750.06,4499.67L2750.05,4499.75L2750.04,4499.83L2750.02,4499.9L2749.99,4499.98L2749.96,4500.05L2749.92,4500.11L2749.87,4500.18L2749.82,4500.23L2748.66,4501.39L2748.66,4501.4L2748.66,4501.4L2748.65,4501.4L2748.65,4501.4C2748.65,4501.4 2748.65,4501.4 2748.65,4501.4L2748.65,4501.4L2748.65,4501.4L2748.66,4501.41L2748.66,4501.41L2749.82,4502.57L2749.83,4502.58L2749.83,4502.58L2749.84,4502.58L2749.84,4502.58L2749.85,4502.57L2751,4501.41L2751.06,4501.36L2751.12,4501.32L2751.19,4501.28L2751.26,4501.24L2751.33,4501.21L2751.41,4501.19L2751.49,4501.18L2751.56,4501.18L2751.64,4501.18L2751.72,4501.19L2751.8,4501.2L2751.87,4501.23L2751.94,4501.26L2752.01,4501.29L2752.12,4501.36L2752.22,4501.42L2752.33,4501.48L2752.44,4501.53L2752.55,4501.59L2752.66,4501.64L2752.77,4501.69L2752.88,4501.74L2753,4501.78L2753.11,4501.83L2753.22,4501.87L2753.34,4501.91L2753.46,4501.95L2753.58,4501.98L2753.7,4502.01L2753.83,4502.05L2753.9,4502.07L2753.97,4502.1L2754.04,4502.13L2754.11,4502.18L2754.17,4502.23L2754.22,4502.28L2754.28,4502.34L2754.32,4502.4L2754.36,4502.47L2754.39,4502.54L2754.42,4502.61L2754.44,4502.69L2754.45,4502.77L2754.45,4502.85L2754.45,4504.48L2754.45,4504.49L2754.45,4504.5L2754.46,4504.5L2754.47,4504.5L2756.11,4504.5L2756.12,4504.5L2756.12,4504.5L2756.12,4504.5L2756.12,4504.5L2756.12,4504.5L2756.12,4504.49L2756.12,4504.49L2756.12,4504.48L2756.12,4502.85L2756.13,4502.77L2756.14,4502.69L2756.16,4502.61L2756.18,4502.54L2756.21,4502.47L2756.25,4502.4L2756.3,4502.34L2756.35,4502.28L2756.4,4502.23L2756.47,4502.18L2756.53,4502.13L2756.6,4502.1L2756.67,4502.07L2756.75,4502.05L2756.87,4502.01L2756.99,4501.98L2757.11,4501.95L2757.23,4501.91L2757.35,4501.87L2757.46,4501.83L2757.58,4501.78L2757.69,4501.74L2757.8,4501.69L2757.91,4501.64L2758.03,4501.59L2758.13,4501.53L2758.24,4501.48L2758.35,4501.42L2758.45,4501.36L2758.56,4501.29L2758.63,4501.26L2758.7,4501.23L2758.78,4501.2L2758.86,4501.19L2758.93,4501.18L2759.01,4501.18L2759.09,4501.18L2759.16,4501.19L2759.24,4501.21L2759.31,4501.24L2759.38,4501.28L2759.45,4501.32L2759.51,4501.36L2759.57,4501.42L2760.73,4502.57L2760.74,4502.58L2760.74,4502.58L2760.74,4502.58L2760.74,4502.58L2760.75,4502.57L2761.91,4501.41L2761.92,4501.4L2761.92,4501.4L2761.92,4501.4L2761.92,4501.4L2761.92,4501.4L2761.92,4501.4L2761.92,4501.4L2761.92,4501.4L2761.92,4501.4L2761.92,4501.4L2761.92,4501.4L2761.91,4501.39L2760.75,4500.23L2760.7,4500.18L2760.65,4500.11L2760.61,4500.05L2760.58,4499.98L2760.55,4499.9L2760.53,4499.83L2760.52,4499.75L2760.51,4499.67L2760.51,4499.6L2760.52,4499.52L2760.54,4499.44L2760.56,4499.37L2760.59,4499.3L2760.63,4499.23L2760.7,4499.12L2760.76,4499.01L2760.82,4498.9L2760.87,4498.8L2760.93,4498.69L2760.98,4498.58L2761.03,4498.47L2761.08,4498.35L2761.12,4498.24L2761.17,4498.13L2761.21,4498.01L2761.25,4497.89L2761.28,4497.78L2761.32,4497.66L2761.35,4497.54L2761.38,4497.41L2761.41,4497.33L2761.44,4497.26L2761.47,4497.19L2761.51,4497.13L2761.56,4497.07L2761.62,4497.01L2761.68,4496.96L2761.74,4496.91L2761.81,4496.88L2761.88,4496.84L2761.95,4496.82L2762.03,4496.8L2762.11,4496.79L2762.18,4496.79L2763.82,4496.79L2763.83,4496.78L2763.83,4496.78L2763.83,4496.78L2763.83,4496.78L2763.83,4496.78L2763.84,4496.78L2763.84,4496.78L2763.84,4496.78L2763.84,4496.77L2763.84,4495.13L2763.84,4495.12L2763.84,4495.12L2763.84,4495.12L2763.84,4495.12L2763.84,4495.12L2763.83,4495.11L2763.83,4495.11L2763.83,4495.11L2763.83,4495.11L2763.83,4495.11L2763.82,4495.11L2762.18,4495.11L2762.11,4495.11L2762.03,4495.1L2761.95,4495.08L2761.88,4495.06L2761.81,4495.02L2761.74,4494.98L2761.68,4494.94L2761.62,4494.89L2761.56,4494.83L2761.51,4494.77L2761.47,4494.7L2761.44,4494.64L2761.41,4494.56L2761.38,4494.49L2761.35,4494.36L2761.32,4494.24L2761.28,4494.12L2761.25,4494.01L2761.21,4493.89L2761.17,4493.77L2761.12,4493.66L2761.08,4493.55L2761.03,4493.43L2760.98,4493.32L2760.93,4493.21L2760.87,4493.1L2760.82,4492.99L2760.76,4492.89L2760.7,4492.78L2760.63,4492.67L2760.59,4492.6L2760.56,4492.53L2760.54,4492.46L2760.52,4492.38L2760.51,4492.3L2760.51,4492.22L2760.52,4492.15L2760.53,4492.07L2760.55,4491.99L2760.58,4491.92L2760.61,4491.85L2760.65,4491.78L2760.7,4491.72L2760.75,4491.66L2761.91,4490.51L2761.92,4490.5L2761.92,4490.5L2761.92,4490.5L2761.92,4490.5L2761.92,4490.5L2761.92,4490.5L2761.92,4490.5L2761.92,4490.49L2761.92,4490.49L2761.92,4490.49L2761.92,4490.49L2761.92,4490.49L2761.92,4490.49L2761.92,4490.49L2761.91,4490.48L2760.75,4489.32L2760.74,4489.32L2760.74,4489.32L2760.74,4489.32L2760.74,4489.32L2760.74,4489.32L2760.74,4489.32L2760.74,4489.32L2760.74,4489.32L2760.74,4489.32L2760.74,4489.32L2760.73,4489.32L2760.73,4489.32L2759.57,4490.48L2759.51,4490.53L2759.45,4490.58L2759.38,4490.62L2759.31,4490.66L2759.24,4490.68L2759.16,4490.7L2759.09,4490.72L2759.01,4490.72L2758.93,4490.72L2758.86,4490.71L2758.78,4490.7L2758.7,4490.67L2758.63,4490.64L2758.56,4490.61L2758.45,4490.54L2758.35,4490.48L2758.24,4490.42L2758.13,4490.36L2758.03,4490.31L2757.91,4490.26L2757.8,4490.21L2757.69,4490.16L2757.58,4490.11L2757.46,4490.07L2757.35,4490.03L2757.23,4489.99L2757.11,4489.95L2756.99,4489.92L2756.87,4489.88L2756.75,4489.85L2756.67,4489.83L2756.6,4489.8L2756.53,4489.76L2756.47,4489.72L2756.4,4489.67L2756.35,4489.62L2756.3,4489.56L2756.25,4489.5L2756.21,4489.43L2756.18,4489.36L2756.16,4489.28L2756.14,4489.21L2756.13,4489.13L2756.12,4489.05L2756.12,4487.42L2756.12,4487.4L2756.12,4487.4L2756.12,4487.4L2756.12,4487.4L2756.12,4487.4L2756.12,4487.4L2756.12,4487.4L2756.12,4487.4L2756.12,4487.4L2756.12,4487.4L2756.12,4487.4L2756.11,4487.4L2754.47,4487.4Z" style="fill:rgb(30,30,30);"/>
                </g>
                <g transform="matrix(6.12323e-17,0.313487,-1,1.91956e-17,4564.93,-479.77)">
                    <circle cx="2730.24" cy="4431.19" r="4.276" style="fill:white;"/>
                    <path d="M2725.97,4431.08L2725.97,4430.97L2725.98,4430.86L2725.99,4430.76L2726,4430.65L2726.02,4430.54L2726.03,4430.44L2726.05,4430.33L2726.08,4430.23L2726.1,4430.12L2726.13,4430.02L2726.16,4429.92L2726.19,4429.82L2726.23,4429.72L2726.26,4429.62L2726.3,4429.53L2726.34,4429.43L2726.39,4429.34L2726.43,4429.25L2726.48,4429.15L2726.53,4429.07L2726.59,4428.98L2726.64,4428.89L2726.7,4428.8L2726.76,4428.72L2726.82,4428.64L2726.88,4428.55L2726.94,4428.47L2727.01,4428.4L2727.08,4428.32L2727.15,4428.24L2727.22,4428.17L2727.29,4428.1L2727.37,4428.03L2727.45,4427.96L2727.52,4427.89L2727.6,4427.83L2727.68,4427.77L2727.77,4427.71L2727.85,4427.65L2727.94,4427.59L2728.03,4427.54L2728.11,4427.48L2728.2,4427.43L2728.3,4427.39L2728.39,4427.34L2728.48,4427.29L2728.58,4427.25L2728.68,4427.21L2728.77,4427.18L2728.87,4427.14L2728.97,4427.11L2729.07,4427.08L2729.17,4427.05L2729.28,4427.03L2729.38,4427L2729.49,4426.98L2729.59,4426.97L2729.7,4426.95L2729.8,4426.94L2729.91,4426.93L2730.02,4426.92L2730.13,4426.92L2730.24,4426.92L2730.35,4426.92L2730.46,4426.92L2730.57,4426.93L2730.68,4426.94L2730.79,4426.95L2730.89,4426.97L2731,4426.98L2731.1,4427L2731.21,4427.03L2731.31,4427.05L2731.41,4427.08L2731.51,4427.11L2731.61,4427.14L2731.71,4427.18L2731.81,4427.21L2731.91,4427.25L2732,4427.29L2732.1,4427.34L2732.19,4427.39L2732.28,4427.43L2732.37,4427.48L2732.46,4427.54L2732.55,4427.59L2732.63,4427.65L2732.72,4427.71L2732.8,4427.77L2732.88,4427.83L2732.96,4427.89L2733.04,4427.96L2733.12,4428.03L2733.19,4428.1L2733.26,4428.17L2733.34,4428.24L2733.41,4428.32L2733.47,4428.4L2733.54,4428.47L2733.61,4428.55L2733.67,4428.64L2733.73,4428.72L2733.79,4428.8L2733.84,4428.89L2733.9,4428.98L2733.95,4429.07L2734,4429.15L2734.05,4429.25L2734.1,4429.34L2734.14,4429.43L2734.18,4429.53L2734.22,4429.62L2734.26,4429.72L2734.29,4429.82L2734.33,4429.92L2734.36,4430.02L2734.38,4430.12L2734.41,4430.23L2734.43,4430.33L2734.45,4430.44L2734.47,4430.54L2734.48,4430.65L2734.5,4430.76L2734.51,4430.86L2734.51,4430.97L2734.52,4431.08L2734.52,4431.19L2734.52,4431.3L2734.51,4431.41L2734.51,4431.52L2734.5,4431.63L2734.48,4431.74L2734.47,4431.84L2734.45,4431.95L2734.43,4432.05L2734.41,4432.16L2734.38,4432.26L2734.36,4432.36L2734.33,4432.46L2734.29,4432.56L2734.26,4432.66L2734.22,4432.76L2734.18,4432.86L2734.14,4432.95L2734.1,4433.05L2734.05,4433.14L2734,4433.23L2733.95,4433.32L2733.9,4433.41L2733.84,4433.5L2733.79,4433.58L2733.73,4433.67L2733.67,4433.75L2733.61,4433.83L2733.54,4433.91L2733.47,4433.99L2733.41,4434.07L2733.34,4434.14L2733.26,4434.22L2733.19,4434.29L2733.12,4434.36L2733.04,4434.43L2732.96,4434.49L2732.88,4434.56L2732.8,4434.62L2732.72,4434.68L2732.63,4434.74L2732.55,4434.79L2732.46,4434.85L2732.37,4434.9L2732.28,4434.95L2732.19,4435L2732.1,4435.05L2732,4435.09L2731.91,4435.13L2731.81,4435.17L2731.71,4435.21L2731.61,4435.24L2731.51,4435.28L2731.41,4435.31L2731.31,4435.33L2731.21,4435.36L2731.1,4435.38L2731,4435.4L2730.89,4435.42L2730.79,4435.43L2730.68,4435.45L2730.57,4435.45L2730.46,4435.46L2730.35,4435.47L2730.24,4435.47L2730.13,4435.47L2730.02,4435.46L2729.91,4435.45L2729.8,4435.45L2729.7,4435.43L2729.59,4435.42L2729.49,4435.4L2729.38,4435.38L2729.28,4435.36L2729.17,4435.33L2729.07,4435.31L2728.97,4435.28L2728.87,4435.24L2728.77,4435.21L2728.68,4435.17L2728.58,4435.13L2728.48,4435.09L2728.39,4435.05L2728.3,4435L2728.2,4434.95L2728.11,4434.9L2728.03,4434.85L2727.94,4434.79L2727.85,4434.74L2727.77,4434.68L2727.68,4434.62L2727.6,4434.56L2727.52,4434.49L2727.45,4434.43L2727.37,4434.36L2727.29,4434.29L2727.22,4434.22L2727.15,4434.14L2727.08,4434.07L2727.01,4433.99L2726.94,4433.91L2726.88,4433.83L2726.82,4433.75L2726.76,4433.67L2726.7,4433.58L2726.64,4433.5L2726.59,4433.41L2726.53,4433.32L2726.48,4433.23L2726.43,4433.14L2726.39,4433.05L2726.34,4432.95L2726.3,4432.86L2726.26,4432.76L2726.23,4432.66L2726.19,4432.56L2726.16,4432.46L2726.13,4432.36L2726.1,4432.26L2726.08,4432.16L2726.05,4432.05L2726.03,4431.95L2726.02,4431.84L2726,4431.74L2725.99,4431.63L2725.98,4431.52L2725.97,4431.41L2725.97,4431.3L2725.97,4431.19L2725.97,4431.08ZM2726.79,4431.28L2726.79,4431.37L2726.8,4431.46L2726.81,4431.55L2726.82,4431.63L2726.83,4431.72L2726.84,4431.8L2726.86,4431.89L2726.88,4431.97L2726.9,4432.06L2726.92,4432.14L2726.95,4432.22L2726.97,4432.3L2727,4432.38L2727.03,4432.46L2727.06,4432.53L2727.1,4432.61L2727.13,4432.69L2727.17,4432.76L2727.21,4432.84L2727.25,4432.91L2727.29,4432.98L2727.33,4433.05L2727.38,4433.12L2727.43,4433.19L2727.47,4433.26L2727.53,4433.32L2727.58,4433.39L2727.63,4433.45L2727.69,4433.51L2727.74,4433.57L2727.8,4433.63L2727.86,4433.69L2727.92,4433.75L2727.98,4433.8L2728.05,4433.86L2728.11,4433.91L2728.18,4433.96L2728.24,4434.01L2728.31,4434.06L2728.38,4434.1L2728.45,4434.15L2728.53,4434.19L2728.6,4434.23L2728.67,4434.27L2728.75,4434.3L2728.82,4434.34L2728.9,4434.37L2728.98,4434.4L2729.05,4434.44L2729.14,4434.46L2729.22,4434.49L2729.3,4434.51L2729.38,4434.54L2729.46,4434.56L2729.55,4434.57L2729.63,4434.59L2729.72,4434.61L2729.8,4434.62L2729.89,4434.63L2729.98,4434.63L2730.06,4434.64L2730.15,4434.64L2730.24,4434.64L2730.33,4434.64L2730.42,4434.64L2730.51,4434.63L2730.6,4434.63L2730.68,4434.62L2730.77,4434.61L2730.85,4434.59L2730.94,4434.57L2731.02,4434.56L2731.11,4434.54L2731.19,4434.51L2731.27,4434.49L2731.35,4434.46L2731.43,4434.44L2731.51,4434.4L2731.58,4434.37L2731.66,4434.34L2731.74,4434.3L2731.81,4434.27L2731.89,4434.23L2731.96,4434.19L2732.03,4434.15L2732.1,4434.1L2732.17,4434.06L2732.24,4434.01L2732.31,4433.96L2732.37,4433.91L2732.44,4433.86L2732.5,4433.8L2732.56,4433.75L2732.62,4433.69L2732.68,4433.63L2732.74,4433.57L2732.8,4433.51L2732.85,4433.45L2732.91,4433.39L2732.96,4433.32L2733.01,4433.26L2733.06,4433.19L2733.1,4433.12L2733.15,4433.05L2733.2,4432.98L2733.24,4432.91L2733.28,4432.84L2733.32,4432.76L2733.35,4432.69L2733.39,4432.61L2733.42,4432.53L2733.46,4432.46L2733.49,4432.38L2733.51,4432.3L2733.54,4432.22L2733.56,4432.14L2733.59,4432.06L2733.61,4431.97L2733.62,4431.89L2733.64,4431.8L2733.65,4431.72L2733.67,4431.63L2733.68,4431.55L2733.68,4431.46L2733.69,4431.37L2733.69,4431.28L2733.69,4431.19L2733.69,4431.1L2733.69,4431.01L2733.68,4430.93L2733.68,4430.84L2733.67,4430.75L2733.65,4430.67L2733.64,4430.58L2733.62,4430.5L2733.61,4430.41L2733.59,4430.33L2733.56,4430.25L2733.54,4430.17L2733.51,4430.09L2733.49,4430.01L2733.46,4429.93L2733.42,4429.85L2733.39,4429.77L2733.35,4429.7L2733.32,4429.62L2733.28,4429.55L2733.24,4429.48L2733.2,4429.4L2733.15,4429.33L2733.1,4429.26L2733.06,4429.19L2733.01,4429.13L2732.96,4429.06L2732.91,4429L2732.85,4428.93L2732.8,4428.87L2732.74,4428.81L2732.68,4428.75L2732.62,4428.69L2732.56,4428.64L2732.5,4428.58L2732.44,4428.53L2732.37,4428.48L2732.31,4428.43L2732.24,4428.38L2732.17,4428.33L2732.1,4428.28L2732.03,4428.24L2731.96,4428.2L2731.89,4428.16L2731.81,4428.12L2731.74,4428.08L2731.66,4428.05L2731.58,4428.01L2731.51,4427.98L2731.43,4427.95L2731.35,4427.92L2731.27,4427.9L2731.19,4427.87L2731.11,4427.85L2731.02,4427.83L2730.94,4427.81L2730.85,4427.79L2730.77,4427.78L2730.68,4427.77L2730.6,4427.76L2730.51,4427.75L2730.42,4427.74L2730.33,4427.74L2730.24,4427.74L2730.15,4427.74L2730.06,4427.74L2729.98,4427.75L2729.89,4427.76L2729.8,4427.77L2729.72,4427.78L2729.63,4427.79L2729.55,4427.81L2729.46,4427.83L2729.38,4427.85L2729.3,4427.87L2729.22,4427.9L2729.14,4427.92L2729.05,4427.95L2728.98,4427.98L2728.9,4428.01L2728.82,4428.05L2728.75,4428.08L2728.67,4428.12L2728.6,4428.16L2728.53,4428.2L2728.45,4428.24L2728.38,4428.28L2728.31,4428.33L2728.24,4428.38L2728.18,4428.43L2728.11,4428.48L2728.05,4428.53L2727.98,4428.58L2727.92,4428.64L2727.86,4428.69L2727.8,4428.75L2727.74,4428.81L2727.69,4428.87L2727.63,4428.94L2727.58,4429L2727.53,4429.06L2727.47,4429.13L2727.43,4429.19L2727.38,4429.26L2727.33,4429.33L2727.29,4429.4L2727.25,4429.48L2727.21,4429.55L2727.17,4429.62L2727.13,4429.7L2727.1,4429.77L2727.06,4429.85L2727.03,4429.93L2727,4430.01L2726.97,4430.09L2726.95,4430.17L2726.92,4430.25L2726.9,4430.33L2726.88,4430.41L2726.86,4430.5L2726.84,4430.58L2726.83,4430.67L2726.82,4430.75L2726.81,4430.84L2726.8,4430.93L2726.79,4431.01L2726.79,4431.1L2726.79,4431.19L2726.79,4431.28Z" style="fill:rgb(30,30,30);"/>
                </g>
            </g>
        </g>
    </g>
</svg>
